<svg width="114" height="104" viewBox="0 0 114 104" fill="none" xmlns="http://www.w3.org/2000/svg">
<path d="M92 58.6456C92 41.0132 80.4615 26.4261 63.5 24M22 58.6456C22 41.0132 33.5385 26.4261 50.5 24" stroke="#404BDE" stroke-width="8"/>
<rect x="2" y="55" width="14" height="5" rx="2.5" fill="#404BDE"/>
<rect x="98" y="55" width="14" height="5" rx="2.5" fill="#404BDE"/>
<rect x="20.6588" y="17" width="14" height="5" rx="2.5" transform="rotate(47.0349 20.6588 17)" fill="#404BDE"/>
<rect width="14" height="5" rx="2.5" transform="matrix(-0.681553 0.731769 0.731769 0.681553 93.5417 17)" fill="#404BDE"/>
<path d="M57 3C58.6569 3 60 4.34315 60 6L60 9L54 9L54 6C54 4.34315 55.3431 3 57 3V3Z" fill="#404BDE"/>
<path d="M57 39L66.5263 58.5H47.4737L57 39Z" fill="#404BDE"/>
<rect x="54" y="62" width="6" height="19" fill="#00BDE6"/>
<path d="M63 62H68C68 67.0768 68 71 68 71L63 76V62Z" fill="#00BDE6"/>
<path d="M51 62H46C46 67.0768 46 71 46 71L51 76V62Z" fill="#00BDE6"/>
<path d="M66 96C74 91.5 114 92 114 92L98 103L59.5 103C59.5 103 58 100.5 66 96Z" fill="#00BDE6"/>
<path d="M48 96.0165C40 91.5165 3.8147e-06 92.0165 3.8147e-06 92.0165L16 103.017L54.5 103.017C54.5 103.017 56 100.517 48 96.0165Z" fill="#00BDE6"/>
<path d="M70.5 86C79.5 81 111 82.5 111 82.5L106 88C96.5 88 84 86.5 74.5 89C65 91.5 66.8281 93.2229 61 94C61 94 61.5 91 70.5 86Z" fill="#00BDE6"/>
<path d="M43.5 86C34.5 81 3 82.5 3 82.5L8 88C17.5 88 30 86.5 39.5 89C49 91.5 47.1719 93.2229 53 94C53 94 52.5 91 43.5 86Z" fill="#00BDE6"/>
<path d="M76 72C85.5 65.5 97 67 97 67L93 79C93 79 83.4479 78.8103 77.5 80C72.4742 81.0053 65 84 65 84C65 84 66.5 78.5 76 72Z" fill="#00BDE6"/>
<path d="M38 72C28.5 65.5 17 67 17 67L21 79C21 79 30.5521 78.8103 36.5 80C41.5258 81.0053 49 84 49 84C49 84 47.5 78.5 38 72Z" fill="#00BDE6"/>
<path d="M27.49 41H32.35V58.04H42.88V62H27.49V41Z" fill="#00BDE6"/>
<path d="M80.704 62.336C78.7067 62.336 76.896 61.9067 75.272 61.048C73.6667 60.1707 72.3973 58.9667 71.464 57.436C70.5493 55.8867 70.092 54.1413 70.092 52.2C70.092 50.2587 70.5493 48.5227 71.464 46.992C72.3973 45.4427 73.6667 44.2387 75.272 43.38C76.896 42.5027 78.716 42.064 80.732 42.064C82.4307 42.064 83.9613 42.3627 85.324 42.96C86.7053 43.5573 87.8627 44.416 88.796 45.536L85.884 48.224C84.5587 46.6933 82.916 45.928 80.956 45.928C79.7427 45.928 78.66 46.1987 77.708 46.74C76.756 47.2627 76.0093 48 75.468 48.952C74.9453 49.904 74.684 50.9867 74.684 52.2C74.684 53.4133 74.9453 54.496 75.468 55.448C76.0093 56.4 76.756 57.1467 77.708 57.688C78.66 58.2107 79.7427 58.472 80.956 58.472C82.916 58.472 84.5587 57.6973 85.884 56.148L88.796 58.836C87.8627 59.9747 86.7053 60.8427 85.324 61.44C83.9427 62.0373 82.4027 62.336 80.704 62.336Z" fill="#00BDE6"/>
<path d="M53.26 18.44H43.18V12.5H70.63V18.44H60.55V44H53.26V18.44Z" fill="#00BDE6"/>
</svg>
